<?xml version="1.0" encoding="UTF-8" standalone="no"?>
<!-- Created with Inkscape (http://www.inkscape.org/) -->

<svg
   version="1.1"
   id="svg2"
   width="1742.84"
   height="666.66669"
   viewBox="0 0 1742.84 666.66669"
   sodipodi:docname="topo_primary_black (1).ai"
   xmlns:inkscape="http://www.inkscape.org/namespaces/inkscape"
   xmlns:sodipodi="http://sodipodi.sourceforge.net/DTD/sodipodi-0.dtd"
   xmlns="http://www.w3.org/2000/svg"
   xmlns:svg="http://www.w3.org/2000/svg">
  <defs
     id="defs6">
    <clipPath
       clipPathUnits="userSpaceOnUse"
       id="clipPath16">
      <path
         d="M 0,500 H 1307.127 V 0 H 0 Z"
         id="path14" />
    </clipPath>
  </defs>
  <sodipodi:namedview
     id="namedview4"
     pagecolor="#ffffff"
     bordercolor="#000000"
     borderopacity="0.25"
     inkscape:showpageshadow="2"
     inkscape:pageopacity="0.0"
     inkscape:pagecheckerboard="0"
     inkscape:deskcolor="#d1d1d1" />
  <g
     id="g8"
     inkscape:groupmode="layer"
     inkscape:label="topo_primary_black (1)"
     transform="matrix(1.3333333,0,0,-1.3333333,0,666.66667)">
    <g
       id="g10">
      <g
         id="g12"
         clip-path="url(#clipPath16)">
        <g
           id="g18"
           transform="translate(638.4854,484.3852)">
          <path
             d="m 0,0 h -19.905 c -1.431,0 -2.473,1.172 -2.473,2.474 v 10.667 c 0,1.302 1.042,2.474 2.473,2.474 h 56.853 c 1.431,0 2.472,-1.172 2.472,-2.474 V 2.474 C 39.42,1.172 38.379,0 36.948,0 H 17.043 v -72.985 c 0,-1.298 -1.171,-2.47 -2.473,-2.47 H 2.472 C 1.17,-75.455 0,-74.283 0,-72.985 Z"
             style="fill:#ffffff;fill-opacity:1;fill-rule:nonzero;stroke:none"
             id="path20" />
        </g>
        <g
           id="g22"
           transform="translate(704.4531,497.5258)">
          <path
             d="m 0,0 c 0,1.302 1.172,2.474 2.472,2.474 h 12.1 c 1.431,0 2.472,-1.172 2.472,-2.474 V -34.477 H 59.456 V 0 c 0,1.302 1.041,2.474 2.472,2.474 h 11.969 c 1.301,0 2.471,-1.172 2.471,-2.474 v -86.125 c 0,-1.299 -1.17,-2.471 -2.471,-2.471 H 61.928 c -1.431,0 -2.472,1.172 -2.472,2.471 v 35.91 H 17.044 v -35.91 c 0,-1.299 -1.041,-2.471 -2.472,-2.471 h -12.1 c -1.3,0 -2.472,1.172 -2.472,2.471 z"
             style="fill:#ffffff;fill-opacity:1;fill-rule:nonzero;stroke:none"
             id="path24" />
        </g>
        <g
           id="g26"
           transform="translate(813.3558,497.5258)">
          <path
             d="m 0,0 c 0,1.302 1.041,2.474 2.472,2.474 h 52.951 c 1.43,0 2.471,-1.172 2.471,-2.474 v -10.666 c 0,-1.303 -1.041,-2.475 -2.471,-2.475 H 16.914 v -21.336 h 32.133 c 1.302,0 2.472,-1.168 2.472,-2.471 v -10.797 c 0,-1.433 -1.17,-2.47 -2.472,-2.47 H 16.914 v -22.77 h 38.509 c 1.43,0 2.471,-1.171 2.471,-2.47 v -10.67 c 0,-1.299 -1.041,-2.471 -2.471,-2.471 H 2.472 C 1.041,-88.596 0,-87.424 0,-86.125 Z"
             style="fill:#ffffff;fill-opacity:1;fill-rule:nonzero;stroke:none"
             id="path28" />
        </g>
        <g
           id="g30"
           transform="translate(652.401,289.1885)">
          <path
             d="M 0,0 C 16.391,0 29.92,13.402 29.92,29.793 29.92,46.185 16.391,59.844 0,59.844 -16.395,59.844 -29.793,46.185 -29.793,29.793 -29.793,13.402 -16.395,0 0,0 m 0,76.758 c 26.02,0 46.834,-20.945 46.834,-46.965 0,-26.02 -20.814,-46.707 -46.834,-46.707 -26.02,0 -46.707,20.687 -46.707,46.707 0,26.02 20.687,46.965 46.707,46.965"
             style="fill:#ffffff;fill-opacity:1;fill-rule:nonzero;stroke:none"
             id="path32" />
        </g>
        <g
           id="g34"
           transform="translate(725.3997,362.1731)">
          <path
             d="m 0,0 c 0,1.302 1.168,2.474 2.471,2.474 h 12.36 c 1.43,0 2.471,-1.172 2.471,-2.474 v -53.208 c 0,-11.059 7.546,-19.777 18.866,-19.777 11.315,0 18.992,8.718 18.992,19.646 V 0 c 0,1.302 1.041,2.474 2.471,2.474 h 12.36 c 1.303,0 2.471,-1.172 2.471,-2.474 V -54.119 C 72.462,-73.895 56.72,-89.898 36.168,-89.898 15.742,-89.898 0,-73.895 0,-54.119 Z"
             style="fill:#ffffff;fill-opacity:1;fill-rule:nonzero;stroke:none"
             id="path36" />
        </g>
        <g
           id="g38"
           transform="translate(842.8887,349.0325)">
          <path
             d="m 0,0 h -19.903 c -1.433,0 -2.475,1.172 -2.475,2.474 v 10.667 c 0,1.302 1.042,2.474 2.475,2.474 h 56.851 c 1.429,0 2.47,-1.172 2.47,-2.474 V 2.474 C 39.418,1.172 38.377,0 36.948,0 H 17.044 v -72.985 c 0,-1.298 -1.172,-2.47 -2.474,-2.47 H 2.471 c -1.299,0 -2.471,1.172 -2.471,2.47 z"
             style="fill:#ffffff;fill-opacity:1;fill-rule:nonzero;stroke:none"
             id="path40" />
        </g>
        <g
           id="g42"
           transform="translate(940.4709,289.4497)">
          <path
             d="M 0,0 C 16.914,0 29.271,12.749 29.271,29.793 29.271,46.703 16.914,59.456 0,59.456 H -14.831 V 0 Z m -31.614,72.723 c 0,1.303 1.041,2.475 2.343,2.475 H 1.56 c 25.109,0 45.666,-20.426 45.666,-45.405 0,-25.24 -20.557,-45.666 -45.666,-45.666 h -30.831 c -1.302,0 -2.343,1.172 -2.343,2.471 z"
             style="fill:#ffffff;fill-opacity:1;fill-rule:nonzero;stroke:none"
             id="path44" />
        </g>
        <g
           id="g46"
           transform="translate(1052.8879,289.1885)">
          <path
             d="M 0,0 C 16.391,0 29.92,13.402 29.92,29.793 29.92,46.185 16.391,59.844 0,59.844 -16.395,59.844 -29.793,46.185 -29.793,29.793 -29.793,13.402 -16.395,0 0,0 m 0,76.758 c 26.02,0 46.834,-20.945 46.834,-46.965 0,-26.02 -20.814,-46.707 -46.834,-46.707 -26.02,0 -46.707,20.687 -46.707,46.707 0,26.02 20.687,46.965 46.707,46.965"
             style="fill:#ffffff;fill-opacity:1;fill-rule:nonzero;stroke:none"
             id="path48" />
        </g>
        <g
           id="g50"
           transform="translate(1167.3873,289.1885)">
          <path
             d="M 0,0 C 16.391,0 29.92,13.402 29.92,29.793 29.92,46.185 16.391,59.844 0,59.844 -16.395,59.844 -29.793,46.185 -29.793,29.793 -29.793,13.402 -16.395,0 0,0 m 0,76.758 c 26.02,0 46.834,-20.945 46.834,-46.965 0,-26.02 -20.814,-46.707 -46.834,-46.707 -26.02,0 -46.707,20.687 -46.707,46.707 0,26.02 20.687,46.965 46.707,46.965"
             style="fill:#ffffff;fill-opacity:1;fill-rule:nonzero;stroke:none"
             id="path52" />
        </g>
        <g
           id="g54"
           transform="translate(1277.3336,323.1431)">
          <path
             d="M 0,0 C 6.893,0 12.88,5.986 12.88,13.271 12.88,20.168 6.893,25.889 0,25.889 H -21.206 V 0 Z m -38.25,39.03 c 0,1.302 1.041,2.474 2.474,2.474 H 1.43 c 15.611,0 28.363,-12.491 28.363,-27.972 0,-11.968 -7.938,-21.728 -19.257,-26.281 L 28.36,-45.793 c 0.911,-1.69 0,-3.773 -2.209,-3.773 H 12.488 c -1.169,0 -1.822,0.65 -2.079,1.172 l -17.306,34.473 h -14.439 v -33.174 c 0,-1.299 -1.172,-2.471 -2.471,-2.471 h -11.969 c -1.433,0 -2.474,1.172 -2.474,2.471 z"
             style="fill:#ffffff;fill-opacity:1;fill-rule:nonzero;stroke:none"
             id="path56" />
        </g>
        <g
           id="g58"
           transform="translate(654.3605,186.1057)">
          <path
             d="M 0,0 C 7.285,0 13.4,5.856 13.4,13.532 13.4,20.687 7.285,26.151 0,26.151 H -15.091 V 0 Z m -32.004,39.679 c 0,1.303 1.041,2.475 2.472,2.475 H 1.041 c 16.002,0 29.142,-13.01 29.142,-28.752 0,-16.134 -13.14,-29.275 -29.011,-29.275 h -16.263 v -30.573 c 0,-1.299 -1.172,-2.47 -2.472,-2.47 h -11.969 c -1.431,0 -2.472,1.171 -2.472,2.47 z"
             style="fill:#ffffff;fill-opacity:1;fill-rule:nonzero;stroke:none"
             id="path60" />
        </g>
        <g
           id="g62"
           transform="translate(752.5939,152.8006)">
          <path
             d="M 0,0 C 16.393,0 29.924,13.402 29.924,29.793 29.924,46.185 16.393,59.844 0,59.844 -16.391,59.844 -29.791,46.185 -29.791,29.793 -29.791,13.402 -16.391,0 0,0 m 0,76.758 c 26.02,0 46.836,-20.945 46.836,-46.965 0,-26.02 -20.816,-46.707 -46.836,-46.707 -26.018,0 -46.705,20.687 -46.705,46.707 0,26.02 20.687,46.965 46.705,46.965"
             style="fill:#ffffff;fill-opacity:1;fill-rule:nonzero;stroke:none"
             id="path64" />
        </g>
        <g
           id="g66"
           transform="translate(826.8932,225.7852)">
          <path
             d="m 0,0 c 0,1.302 1.041,2.474 2.472,2.474 h 11.969 c 1.301,0 2.473,-1.172 2.473,-2.474 v -72.985 h 33.174 c 1.431,0 2.473,-1.171 2.473,-2.47 v -10.67 c 0,-1.299 -1.042,-2.471 -2.473,-2.471 H 2.472 C 1.041,-88.596 0,-87.424 0,-86.125 Z"
             style="fill:#ffffff;fill-opacity:1;fill-rule:nonzero;stroke:none"
             id="path68" />
        </g>
        <g
           id="g70"
           transform="translate(905.6116,225.7852)">
          <path
             d="m 0,0 c 0,1.302 1.172,2.474 2.472,2.474 h 12.1 c 1.302,0 2.474,-1.172 2.474,-2.474 v -86.125 c 0,-1.299 -1.172,-2.471 -2.474,-2.471 h -12.1 c -1.3,0 -2.472,1.172 -2.472,2.471 z"
             style="fill:#ffffff;fill-opacity:1;fill-rule:nonzero;stroke:none"
             id="path72" />
        </g>
        <g
           id="g74"
           transform="translate(999.6801,229.5583)">
          <path
             d="m 0,0 c 13.141,0 22.639,-4.161 31.484,-12.099 1.172,-1.042 1.172,-2.602 0.13,-3.643 l -7.934,-8.196 c -0.914,-1.041 -2.213,-1.041 -3.254,0 -5.464,4.815 -12.749,7.677 -20.034,7.677 -16.653,0 -29.013,-13.92 -29.013,-30.312 0,-16.264 12.491,-30.054 29.143,-30.054 7.804,0 14.44,2.993 19.904,7.416 1.041,0.91 2.47,0.78 3.254,0 l 8.065,-8.327 c 1.041,-0.91 0.78,-2.601 -0.131,-3.512 C 22.766,-89.637 11.581,-93.671 0,-93.671 c -26.02,0 -46.965,20.686 -46.965,46.706 C -46.965,-20.945 -26.02,0 0,0"
             style="fill:#ffffff;fill-opacity:1;fill-rule:nonzero;stroke:none"
             id="path76" />
        </g>
        <g
           id="g78"
           transform="translate(1078.7885,181.0337)">
          <path
             d="m 0,0 -29.662,43.453 c -1.038,1.69 0,3.773 2.082,3.773 h 13.271 c 1.041,0 1.691,-0.653 2.083,-1.172 L 8.588,16.13 29.405,46.054 c 0.388,0.519 1.038,1.172 2.079,1.172 h 13.402 c 2.082,0 3.12,-2.083 2.082,-3.773 L 16.914,0.127 v -41.501 c 0,-1.299 -1.172,-2.47 -2.471,-2.47 H 2.474 c -1.433,0 -2.474,1.171 -2.474,2.47 z"
             style="fill:#ffffff;fill-opacity:1;fill-rule:nonzero;stroke:none"
             id="path80" />
        </g>
        <g
           id="g82"
           transform="translate(652.401,16.9137)">
          <path
             d="M 0,0 C 16.391,0 29.92,13.402 29.92,29.793 29.92,46.185 16.391,59.844 0,59.844 -16.395,59.844 -29.793,46.185 -29.793,29.793 -29.793,13.402 -16.395,0 0,0 m 0,76.758 c 26.02,0 46.834,-20.945 46.834,-46.965 0,-26.02 -20.814,-46.707 -46.834,-46.707 -26.02,0 -46.707,20.687 -46.707,46.707 0,26.02 20.687,46.965 46.707,46.965"
             style="fill:#ffffff;fill-opacity:1;fill-rule:nonzero;stroke:none"
             id="path84" />
        </g>
        <g
           id="g86"
           transform="translate(722.7984,89.8983)">
          <path
             d="m 0,0 c 0,1.302 1.168,2.474 2.471,2.474 h 12.36 c 1.43,0 2.471,-1.172 2.471,-2.474 v -53.208 c 0,-11.059 7.546,-19.777 18.866,-19.777 11.315,0 18.992,8.718 18.992,19.646 V 0 c 0,1.302 1.041,2.474 2.471,2.474 h 12.361 c 1.302,0 2.47,-1.172 2.47,-2.474 V -54.119 C 72.462,-73.895 56.72,-89.898 36.168,-89.898 15.742,-89.898 0,-73.895 0,-54.119 Z"
             style="fill:#ffffff;fill-opacity:1;fill-rule:nonzero;stroke:none"
             id="path88" />
        </g>
        <g
           id="g90"
           transform="translate(842.8887,76.7577)">
          <path
             d="m 0,0 h -19.907 c -1.429,0 -2.471,1.172 -2.471,2.474 v 10.667 c 0,1.302 1.042,2.474 2.471,2.474 h 56.855 c 1.433,0 2.47,-1.172 2.47,-2.474 V 2.474 C 39.418,1.172 38.381,0 36.948,0 H 17.044 v -72.985 c 0,-1.298 -1.172,-2.47 -2.474,-2.47 H 2.471 c -1.299,0 -2.471,1.172 -2.471,2.47 z"
             style="fill:#ffffff;fill-opacity:1;fill-rule:nonzero;stroke:none"
             id="path92" />
        </g>
        <g
           id="g94"
           transform="translate(908.8565,89.8983)">
          <path
             d="m 0,0 c 0,1.302 1.041,2.474 2.474,2.474 h 52.947 c 1.433,0 2.475,-1.172 2.475,-2.474 v -10.666 c 0,-1.303 -1.042,-2.475 -2.475,-2.475 H 16.914 v -24.456 h 32.133 c 1.302,0 2.474,-1.172 2.474,-2.471 v -10.67 c 0,-1.302 -1.172,-2.47 -2.474,-2.47 H 16.914 v -32.917 c 0,-1.299 -1.172,-2.471 -2.471,-2.471 H 2.474 C 1.041,-88.596 0,-87.424 0,-86.125 Z"
             style="fill:#ffffff;fill-opacity:1;fill-rule:nonzero;stroke:none"
             id="path96" />
        </g>
        <g
           id="g98"
           transform="translate(995.2535,89.8983)">
          <path
             d="M 0,0 C 0,1.302 1.172,2.474 2.474,2.474 H 14.57 c 1.302,0 2.474,-1.172 2.474,-2.474 v -86.125 c 0,-1.299 -1.172,-2.471 -2.474,-2.471 H 2.474 C 1.172,-88.596 0,-87.424 0,-86.125 Z"
             style="fill:#ffffff;fill-opacity:1;fill-rule:nonzero;stroke:none"
             id="path100" />
        </g>
        <g
           id="g102"
           transform="translate(1061.2178,76.7577)">
          <path
             d="m 0,0 h -19.903 c -1.433,0 -2.475,1.172 -2.475,2.474 v 10.667 c 0,1.302 1.042,2.474 2.475,2.474 h 56.851 c 1.429,0 2.47,-1.172 2.47,-2.474 V 2.474 C 39.418,1.172 38.377,0 36.948,0 H 17.044 v -72.985 c 0,-1.298 -1.172,-2.47 -2.474,-2.47 H 2.471 c -1.299,0 -2.471,1.172 -2.471,2.47 z"
             style="fill:#ffffff;fill-opacity:1;fill-rule:nonzero;stroke:none"
             id="path104" />
        </g>
        <g
           id="g106"
           transform="translate(222.7875,256.3696)">
          <path
             d="m 0,0 0.63,1.75 c 4.502,12.466 2.706,27.154 -4.926,40.303 -6.485,11.167 -16.182,19.336 -24.702,20.821 -12.316,2.114 -29.562,-21.601 -38.138,-34.831 7.007,5.134 15.637,8.195 25.065,8.195 C -20.611,36.238 -3.097,20.563 0,0"
             style="fill:#ffffff;fill-opacity:1;fill-rule:nonzero;stroke:none"
             id="path108" />
        </g>
        <g
           id="g110"
           transform="translate(207.9398,249.8804)">
          <path
             d="m 0,0 c 0,14.915 -12.308,27.343 -27.223,27.343 -14.91,0 -27.104,-12.428 -27.104,-27.343 0,-14.91 12.194,-27.104 27.104,-27.104 C -12.308,-27.104 0,-14.91 0,0"
             style="fill:#ffffff;fill-opacity:1;fill-rule:nonzero;stroke:none"
             id="path112" />
        </g>
        <g
           id="g114"
           transform="translate(327.832,446.0791)">
          <path
             d="M 0,0 C 19.098,-10.227 43.462,-8.964 72.484,3.676 69.48,5.94 66.415,8.126 63.308,10.256 57.399,6.651 43.141,-0.952 27.964,-0.952 c -4.976,0 -10.039,0.82 -14.942,2.866 -14.074,5.883 -23.538,20.79 -28.303,44.116 -6.745,1.737 -13.622,3.137 -20.575,4.313 C -31.604,35.552 -21.64,11.593 0,0"
             style="fill:#ffffff;fill-opacity:1;fill-rule:nonzero;stroke:none"
             id="path116" />
        </g>
        <g
           id="g118"
           transform="translate(357.8662,415.6104)">
          <path
             d="m 0,0 c -10.376,-7.261 -16.558,-18.037 -18.379,-32.026 -0.517,-3.98 -0.991,-7.764 -1.445,-11.387 -4.165,-33.13 -6.671,-52.9 -23.168,-82.961 6.182,-2.669 11.162,-7.595 13.842,-13.7 4.488,17.205 8.635,33.607 11.225,44.039 0.469,2.475 12.022,62.637 27.027,80.796 l 0.258,0.244 c 29.5,21.169 74.225,5.051 80.107,2.782 C 83.791,-4.922 77.732,2.05 71.298,8.662 68.454,9.229 57.515,11.226 44.189,11.226 29.839,11.226 12.725,8.911 0,0"
             style="fill:#ffffff;fill-opacity:1;fill-rule:nonzero;stroke:none"
             id="path120" />
        </g>
        <g
           id="g122"
           transform="translate(292.6855,99.6875)">
          <path
             d="m 0,0 c -1.46,70.093 8.896,95.669 15.2,104.678 1.925,2.749 6.878,19.411 12.463,39.794 -4.443,-3.412 -9.906,-5.519 -15.855,-5.519 H -2.987 v -27.818 c 0,-1.183 -1.064,-2.247 -2.247,-2.247 h -10.891 c -1.297,0 -2.246,1.064 -2.246,2.247 v 18.158 c -0.662,-0.881 -1.294,-1.731 -1.971,-2.628 C -37.51,103.926 -49.966,88.701 -59.063,77.583 -82.529,48.906 -86.133,44.497 -99.595,-0.366 c -10.256,-46.571 28.156,-71.086 79.47,-98.259 9.839,0.881 19.52,2.3 28.997,4.288 l -20.654,0.27 c -0.215,0.097 -22.066,10.141 -40.904,28.188 -25.117,24.072 -33.54,51.367 -24.35,78.931 21.953,65.864 40.034,75.927 40.796,76.323 0.317,0.249 11.977,8.628 21.157,3.965 6.616,-3.364 9.971,-12.52 9.971,-27.217 0,-13.296 -1.304,-25.737 -2.564,-37.764 -2.822,-26.943 -5.049,-48.222 9.219,-61.963 2.671,-2.573 5.181,-5.043 7.598,-7.426 15.337,-15.11 26.828,-26.38 52.116,-36.013 5.273,2.414 10.477,4.952 15.544,7.714 -4.148,0.968 -8.404,2.085 -12.895,3.528 C 42.539,-58.936 0.615,-29.487 0,0"
             style="fill:#ffffff;fill-opacity:1;fill-rule:nonzero;stroke:none"
             id="path124" />
        </g>
        <g
           id="g126"
           transform="translate(315.6183,265.3894)">
          <path
             d="m 0,0 c 0,5.19 -3.56,9.357 -8.356,10.85 -4.36,-7.044 -9.432,-14.687 -15.384,-23.164 h 11.552 C -5.562,-12.314 0,-6.986 0,0"
             style="fill:#ffffff;fill-opacity:1;fill-rule:nonzero;stroke:none"
             id="path128" />
        </g>
        <g
           id="g130"
           transform="translate(341.9043,450.5371)">
          <path
             d="M 0,0 C 17.596,-7.369 38.325,2.672 46.696,7.522 24.573,22.289 -0.043,33.591 -26.379,40.728 -21.729,19.153 -12.905,5.399 0,0"
             style="fill:#ffffff;fill-opacity:1;fill-rule:nonzero;stroke:none"
             id="path132" />
        </g>
        <g
           id="g134"
           transform="translate(138.2288,249.8804)">
          <path
             d="M 0,0 C 0,10.421 3.653,19.941 9.755,27.341 10.917,29.388 37.263,75.317 56.029,72.068 65.316,70.457 75.76,61.76 82.64,49.919 90.682,36.072 92.557,20.535 87.777,7.302 L 86.708,4.343 C 86.155,2.805 85.618,1.315 85.088,-0.14 85.013,-23.742 66.114,-42.488 42.488,-42.488 18.82,-42.488 0,-23.668 0,0 M 79.242,-32.937 C 92.943,-19.954 115.048,30.149 88.436,77.117 82.494,87.61 74.838,93.342 65.687,94.167 41.322,96.287 13.304,63.362 12.792,62.761 -4.801,41.165 -21.627,-1.96 4.13,-32.258 c 9.262,-10.899 20.278,-16.763 32.739,-17.437 17.295,-0.932 33.599,8.447 42.373,16.758"
             style="fill:#ffffff;fill-opacity:1;fill-rule:nonzero;stroke:none"
             id="path136" />
        </g>
        <g
           id="g138"
           transform="translate(481.626,187.0996)">
          <path
             d="m 0,0 -0.044,-0.176 c -0.908,-2.729 -22.622,-66.909 -52.671,-73.603 -3.696,-0.371 -7.3,-0.557 -10.796,-0.557 -44.018,0 -72.27,29.199 -82.129,85.068 -4.965,28.13 29.956,99.078 33.955,107.076 7.286,14.555 21.534,28.237 36.846,25.918 15.044,-2.251 54.693,-22.622 71.743,-47.793 C 13.555,71.348 0.562,2.9 0,0 m 11.006,103.32 c -7.1,18.472 -19.859,39.273 -64.727,66.201 -7.495,4.493 -14.673,6.749 -21.45,6.749 -3.472,0 -6.836,-0.591 -10.088,-1.778 -19.414,-7.085 -28.525,-33.096 -28.618,-33.354 -0.469,-1.065 -42.559,-95.62 -50.308,-132.808 -8.393,-40.303 -15.141,-82.178 2.203,-112.344 17.539,-30.488 67.695,-36.24 68.198,-36.294 l 0.024,-0.004 6.506,-0.824 C -23.366,-95.847 18.374,-21.371 18.374,62.9 c 0,9.01 -0.501,17.901 -1.431,26.664 -2.574,5.651 -4.66,10.438 -5.937,13.756"
             style="fill:#ffffff;fill-opacity:1;fill-rule:nonzero;stroke:none"
             id="path140" />
        </g>
        <g
           id="g142"
           transform="translate(471.9678,251.6943)">
          <path
             d="m 0,0 c -1.694,-17.544 -9.053,-48.838 -39.307,-61.313 -3.686,-1.524 -10.986,-2.837 -18.867,-2.837 -7.319,0 -15.141,1.132 -21.05,4.272 l -0.014,0.01 c -36.358,19.785 -29.82,61.079 -29.751,61.494 0.503,2.168 12.324,51.235 49.248,60.195 20.947,2.71 38.398,-14.731 49.345,-29.902 C -3.623,22.52 0.85,8.799 0,0 m -65.591,76.416 c -1.015,0.151 -2.026,0.225 -3.032,0.225 -12.827,0 -24.605,-11.978 -30.942,-24.659 -3.96,-7.915 -38.521,-78.105 -33.711,-105.366 10.356,-58.662 41.328,-87.095 89.785,-82.28 27.905,6.226 49.551,68.984 50.469,71.68 0.542,2.871 13.061,70.522 -2.691,93.779 -16.641,24.56 -55.244,44.424 -69.878,46.621"
             style="fill:#ffffff;fill-opacity:1;fill-rule:nonzero;stroke:none"
             id="path144" />
        </g>
        <g
           id="g146"
           transform="translate(266.6797,173.335)">
          <path
             d="m 0,0 c -2.178,0.293 -4.595,-1.943 -5.366,-2.861 -0.987,-1.348 -33.003,-45.66 -18.721,-76.48 3.071,-6.631 6.397,-9.99 9.888,-9.99 0.083,0 0.161,0.005 0.244,0.005 8.594,0.386 17.622,20.322 20.371,27.973 0,0.142 6.069,38.902 -2.314,57.188 C 2.92,-1.602 1.538,-0.2 0,0"
             style="fill:#ffffff;fill-opacity:1;fill-rule:nonzero;stroke:none"
             id="path148" />
        </g>
        <g
           id="g150"
           transform="translate(275.7471,111.2988)">
          <path
             d="m 0,0 c -0.493,-1.44 -10.713,-29.492 -22.9,-30.034 -0.127,-0.005 -0.249,-0.01 -0.376,-0.01 -4.649,0 -8.809,3.897 -12.373,11.587 -15.118,32.627 17.627,77.407 19.028,79.297 l 0.039,0.049 c 0.142,0.18 3.643,4.409 7.856,3.877 2.539,-0.323 4.649,-2.256 6.26,-5.747 C 6.265,39.976 0.259,1.626 0,0 M 16.577,-47.197 C 1.338,-32.524 3.745,-9.561 6.528,17.031 7.778,28.989 9.072,41.357 9.072,54.512 9.072,68.086 6.23,76.416 0.615,79.272 -7.051,83.184 -17.754,75.513 -17.856,75.43 -18.198,75.234 -36.025,64.961 -57.49,0.571 -78.286,-61.812 0.879,-100.61 6.04,-103.057 l 30.772,-0.349 c 13.076,3.369 25.709,7.821 37.865,13.161 -24.061,9.6 -35.458,20.801 -50.527,35.645 -2.412,2.373 -4.912,4.839 -7.573,7.403"
             style="fill:#ffffff;fill-opacity:1;fill-rule:nonzero;stroke:none"
             id="path152" />
        </g>
        <g
           id="g154"
           transform="translate(416.4417,207.3926)">
          <path
             d="m 0,0 c -23.668,0 -42.487,18.82 -42.487,42.488 0,23.673 18.819,42.727 42.487,42.727 23.673,0 42.607,-19.054 42.607,-42.727 C 42.607,18.82 23.673,0 0,0 m -3.712,103.423 c -35.147,-8.535 -46.939,-57.544 -47.056,-58.037 -0.049,-0.313 -6.24,-39.698 28.364,-58.535 11.753,-6.246 31.661,-3.76 37.579,-1.324 28.92,11.929 35.981,42.11 37.617,59.038 0.776,8.077 -3.57,21.275 -9.888,30.044 -10.508,14.566 -27.187,31.382 -46.616,28.814"
             style="fill:#ffffff;fill-opacity:1;fill-rule:nonzero;stroke:none"
             id="path156" />
        </g>
        <g
           id="g158"
           transform="translate(416.4417,277.2229)">
          <path
             d="m 0,0 c -14.91,0 -27.103,-12.428 -27.103,-27.343 0,-14.909 12.193,-27.103 27.103,-27.103 14.915,0 27.224,12.194 27.224,27.103 C 27.224,-12.428 14.915,0 0,0"
             style="fill:#ffffff;fill-opacity:1;fill-rule:nonzero;stroke:none"
             id="path160" />
        </g>
        <g
           id="g162"
           transform="translate(317.2607,81.7188)">
          <path
             d="m 0,0 c -17.822,31.001 -11.016,73.447 -2.515,114.268 7.813,37.48 50.025,132.304 50.45,133.256 0.336,1.006 9.594,27.398 30.229,34.932 10.41,3.809 21.816,2.056 33.897,-5.2 45.581,-27.354 58.598,-48.638 65.878,-67.569 0.567,-1.472 1.308,-3.26 2.164,-5.258 -4.695,32.409 -15.623,62.783 -31.505,89.917 l -19.213,24.653 c -4.346,1.66 -49.268,17.983 -77.671,-2.231 -14.502,-17.798 -26.231,-78.882 -26.348,-79.502 -0.499,-2.01 -5.96,-23.977 -12.334,-48.315 0.379,-1.746 0.595,-3.549 0.595,-5.4 0,-6.721 -2.588,-12.799 -6.692,-17.491 -6.02,-22.155 -11.751,-41.7 -14.054,-44.991 -6.113,-8.73 -16.152,-33.73 -14.702,-103.042 0.586,-28.217 41.259,-56.577 61.992,-63.242 5.491,-1.764 10.643,-3.07 15.594,-4.11 6.175,3.499 12.204,7.222 18.038,11.217 l -3.53,0.447 C 67.949,-37.407 18.198,-31.646 0,0"
             style="fill:#ffffff;fill-opacity:1;fill-rule:nonzero;stroke:none"
             id="path164" />
        </g>
        <g
           id="g166"
           transform="translate(43.4912,238.7402)">
          <path
             d="m 0,0 c 9.892,2.649 15.144,11.563 17.817,21.973 v 16.51 H 13.323 C 12.738,32.945 11.302,27.471 8.657,22.422 4.16,13.838 -0.688,9.497 -6.172,9.16 -6.411,9.146 -6.65,9.141 -6.89,9.141 c -7.07,0 -14.555,6.43 -24.834,21.269 -12.002,20.088 2.183,39.077 3.399,40.635 4.721,8.276 10.185,13.281 16.245,14.873 5.351,1.416 9.37,-0.361 10.483,-0.928 1.773,-0.268 3.804,-2.275 6.04,-5.976 3.616,-5.974 7.3,-15.68 8.652,-26.33 h 7.024 c -0.349,6.549 -1.021,11.305 -1.159,12.228 -0.645,1.582 -4.668,12.681 -3.189,40.317 3.584,17.764 18.877,35.293 45.479,52.295 19.688,12.579 38.599,20.171 38.789,20.249 9.932,3.394 25.64,10.64 25.791,15.704 0.059,1.899 -2.588,3.388 -4.819,4.301 -14.475,5.938 -50.28,8.709 -69.195,9.797 -2.679,-2.114 -5.315,-4.278 -7.903,-6.498 15.334,-0.728 45.47,-2.395 50.345,-4.427 2.475,-1.035 6.557,-3.213 6.098,-6.211 -0.429,-2.836 -4.663,-4.536 -13.32,-5.346 -2.498,-0.235 -60.31,-6.096 -94.865,-45.122 C -27.779,106.82 -40.211,68.657 -42.885,27.823 -34.112,11.685 -19.84,-5.303 0,0"
             style="fill:#ffffff;fill-opacity:1;fill-rule:nonzero;stroke:none"
             id="path168" />
        </g>
        <g
           id="g170"
           transform="translate(141.1279,429.5947)">
          <path
             d="M 0,0 C 0.063,0.415 -0.967,1.807 -4.434,3.257 -8.834,5.092 -39.619,6.83 -56.74,7.61 -72.617,-6.447 -86.726,-22.454 -98.611,-40.096 -63.159,-8.304 -13.195,-3.246 -10.854,-3.027 -0.43,-2.046 0,-0.02 0,0"
             style="fill:#ffffff;fill-opacity:1;fill-rule:nonzero;stroke:none"
             id="path172" />
        </g>
        <g
           id="g174"
           transform="translate(194.6631,154.4043)">
          <path
             d="M 0,0 C 0.771,0.64 1.357,1.123 1.724,1.436 7.09,6.035 63.169,71.44 63.735,72.1 c 0.168,0.239 7.109,10.07 15.916,25.411 v 13.873 C 77.529,107.212 75.2,102.684 72.646,97.72 L 66.792,86.313 C 31.997,33.359 11.05,23.701 8.779,22.773 6.035,20.854 -38.208,-10.22 -59.307,-33.579 c -0.219,-0.2 -9.629,-8.413 -15.122,-23.193 -5.063,-13.614 -7.744,-35.791 8.218,-64.126 0.519,-0.921 0.964,-1.834 1.354,-2.741 12.292,-6.753 25.228,-12.46 38.668,-17.095 -16.468,16.132 -30.323,37.928 -31.575,62.37 C -58.75,-59.185 -38.774,-32.085 0,0"
             style="fill:#ffffff;fill-opacity:1;fill-rule:nonzero;stroke:none"
             id="path176" />
        </g>
        <g
           id="g178"
           transform="translate(295.4346,360.8594)">
          <path
             d="m 0,0 c 0.5,-35.479 -0.089,-48.483 -8.878,-69.435 h 7.546 c 10.013,23.523 18.075,50.35 17.465,74.992 -1.248,50.686 -39.654,111.655 -54.509,133.405 -2.352,0.065 -4.691,0.179 -7.059,0.179 -17.235,0 -34.063,-1.746 -50.317,-5.068 C -63.119,111.733 3.592,58.649 0,0"
             style="fill:#ffffff;fill-opacity:1;fill-rule:nonzero;stroke:none"
             id="path180" />
        </g>
        <g
           id="g182"
           transform="translate(290.5316,276.8689)">
          <path
             d="M 0,0 C -0.277,-0.58 -0.555,-1.143 -0.833,-1.716 V -22.103 C 4.797,-14.078 9.636,-6.804 13.818,-0.085 13.51,-0.063 13.212,0 12.898,0 Z"
             style="fill:#ffffff;fill-opacity:1;fill-rule:nonzero;stroke:none"
             id="path184" />
        </g>
        <g
           id="g186"
           transform="translate(297.0679,291.424)">
          <path
             d="m 0,0 h 7.311 c 2.735,0 5.328,-0.536 7.818,-1.31 16.5,29.954 18.98,49.539 23.116,82.425 0.454,3.628 0.932,7.417 1.45,11.397 1.919,14.795 8.491,26.211 19.531,33.935 22.596,15.811 57.093,11.898 69.531,9.813 -7.252,7.177 -14.962,13.883 -23.045,20.135 -16.951,-7.551 -32.416,-11.345 -46.271,-11.349 -11.03,0 -21.045,2.397 -29.985,7.192 -23.112,12.39 -33.366,38.182 -37.546,53.296 -9.35,1.464 -18.877,2.38 -28.541,2.778 C -20.916,185.049 16.014,125.219 17.253,75.06 17.863,50.373 9.935,23.583 0,0"
             style="fill:#ffffff;fill-opacity:1;fill-rule:nonzero;stroke:none"
             id="path188" />
        </g>
        <g
           id="g190"
           transform="translate(190.4297,100.0146)">
          <path
             d="m 0,0 c 13.647,45.488 17.832,50.605 41.064,78.999 9.082,11.099 21.519,26.304 38.653,48.999 1.431,1.896 2.805,3.733 4.168,5.559 v 12.894 C 76.137,133.297 70.31,125.045 70.132,124.795 67.739,121.997 13.271,58.472 7.744,53.735 7.373,53.418 6.777,52.925 5.986,52.271 -31.548,21.211 -51.709,-5.815 -50.786,-23.838 c 1.131,-22.078 14.44,-46.081 35.053,-64.612 23.767,-7.5 49.058,-11.565 75.303,-11.565 5.869,0 11.67,0.275 17.437,0.673 C 28.233,-73.26 -10.404,-47.246 0,0"
             style="fill:#ffffff;fill-opacity:1;fill-rule:nonzero;stroke:none"
             id="path192" />
        </g>
        <g
           id="g194"
           transform="translate(43.2025,291.424)">
          <path
             d="M 0,0 H 10.625 C 9.374,9.454 6.212,18.135 2.994,23.854 c -2.393,4.258 -4.209,5.703 -4.712,5.733 l -0.703,0.2 c -0.108,0.059 -2.154,1.23 -5.303,1.23 -1.035,0 -2.187,-0.126 -3.433,-0.459 -5.317,-1.425 -10.205,-6.015 -14.541,-13.647 l -0.131,-0.19 c -0.606,-0.743 -14.707,-18.404 -3.291,-37.51 9.824,-14.175 16.899,-20.249 23.066,-19.99 4.443,0.273 8.55,4.13 12.568,11.796 2.425,4.631 3.764,9.666 4.334,14.782 H 0 c -1.303,0 -2.252,1.064 -2.252,2.247 v 9.707 C -2.252,-1.064 -1.303,0 0,0"
             style="fill:#ffffff;fill-opacity:1;fill-rule:nonzero;stroke:none"
             id="path196" />
        </g>
        <g
           id="g198"
           transform="translate(140.2588,215.8447)">
          <path
             d="m 0,0 c -26.841,31.577 -9.541,76.23 8.638,98.54 l 0.009,0.01 c 1.182,1.421 29.327,34.77 55.259,32.392 10.103,-0.908 18.477,-7.109 24.893,-18.432 C 115.62,65.171 95.361,14.502 79.106,-0.894 70.361,-9.18 54.38,-18.472 37.212,-18.472 c -0.835,0 -1.675,0.02 -2.52,0.064 C 21.445,-17.69 9.775,-11.499 0,0 m 110.083,139.419 c 3.145,6.284 7.354,10.166 12.168,11.221 4.849,1.069 10.195,-0.699 15.889,-5.254 l 0.498,-0.396 0.014,-0.635 c 0.035,-1.074 0.757,-26.313 -2.417,-36.645 -1.381,-4.487 -4.463,-7.119 -8.296,-7.119 -0.141,0 -0.283,0.005 -0.429,0.01 -4.556,0.234 -8.716,4.023 -9.673,8.823 -0.557,2.778 -2.056,6.743 -3.643,10.942 -3.022,7.984 -5.874,15.528 -4.111,19.053 M -22.554,-117.124 c 5.762,15.4 15.332,23.726 15.738,24.072 21.757,24.102 68.095,56.411 68.559,56.734 0.513,0.239 21.695,8.73 57.08,62.573 l 5.781,11.279 c 3.585,6.97 6.711,13.051 9.451,18.499 v 17.3 c 0,1.182 0.949,2.246 2.247,2.246 h 7.037 c 9.24,21.537 9.592,33.682 9.088,69.499 3.591,58.685 -65.258,112.019 -96.643,133.173 -8.141,-1.791 -16.129,-3.978 -23.95,-6.542 20.908,-15.678 64.797,-50.907 72.922,-76.094 4.258,-13.203 4.233,-22.441 -0.068,-27.451 -4.019,-4.673 -10.127,-3.73 -10.376,-3.701 l -0.547,0.215 c -0.22,0.146 -22.139,14.648 -41.651,5.151 C 30.2,159.15 -13.535,130.894 -22.173,100.396 -30.884,69.658 -13.95,6.821 -13.774,6.191 c 0.058,-0.224 5.8,-21.25 24.106,-24.712 8.213,-1.557 18.174,-4.667 19.014,-10.678 0.556,-3.999 -3.076,-7.984 -10.786,-11.836 -1.949,-0.972 -4.366,-2.09 -7.144,-3.369 -20.435,-9.414 -62.959,-29.014 -77.153,-69.302 -0.039,-0.114 -3.663,-11.439 -5.642,-24.359 16.573,-17.425 35.621,-32.448 56.599,-44.527 -15.83,28.796 -13.014,51.467 -7.774,65.468"
             style="fill:#ffffff;fill-opacity:1;fill-rule:nonzero;stroke:none"
             id="path200" />
        </g>
        <g
           id="g202"
           transform="translate(84.6631,197.0801)">
          <path
             d="M 0,0 C 12.896,0.967 20.518,3.76 23.296,8.54 26.04,13.262 24.004,19.712 20.107,27.939 14.863,39.005 7.212,66.14 3.421,80.143 H -7.851 v -66.4 c 0,-1.184 -1.063,-2.248 -2.247,-2.248 h -11.01 c -1.184,0 -2.247,1.064 -2.247,2.248 v 41.146 c -3.382,-7.606 -8.741,-13.645 -17.104,-15.885 -2.72,-0.728 -5.41,-1.089 -8.057,-1.089 -12.846,0 -24.809,8.491 -34.985,24.966 -0.3,0.486 -0.583,0.977 -0.873,1.466 -0.171,-3.79 -0.289,-7.594 -0.289,-11.427 0,-8.889 0.481,-17.665 1.386,-26.315 C -51.867,-3.796 -31.067,-2.328 0,0"
             style="fill:#ffffff;fill-opacity:1;fill-rule:nonzero;stroke:none"
             id="path204" />
        </g>
        <g
           id="g206"
           transform="translate(172.0703,432.1387)">
          <path
             d="m 0,0 c -0.259,-8.618 -24.79,-17.251 -27.588,-18.203 -0.679,-0.274 -74.35,-30.078 -82.5,-70.313 -1.504,-28.344 3.013,-38.93 3.057,-39.033 l 0.102,-0.342 c 0.111,-0.689 0.894,-5.739 1.291,-12.824 h 18.244 c -1.917,12.031 -3.819,41.72 17.096,68.786 15.166,19.624 42.608,33.775 64.658,45.152 16.841,8.681 31.387,16.181 34.307,23.003 0.576,0.869 0.649,1.489 0.386,2.265 C 25.656,8.337 -21.18,25.192 -47.998,33.799 -56.851,28.625 -65.365,22.943 -73.481,16.755 -53.846,15.565 -20.766,12.767 -6.523,6.929 -2.109,5.117 0.083,2.783 0,0"
             style="fill:#ffffff;fill-opacity:1;fill-rule:nonzero;stroke:none"
             id="path208" />
        </g>
        <g
           id="g210"
           transform="translate(260.791,325.8057)">
          <path
             d="m 0,0 c 0.708,-3.54 3.833,-6.445 7.114,-6.611 0.103,-0.01 0.2,-0.01 0.298,-0.01 2.627,0 4.629,1.826 5.664,5.181 2.769,9.013 2.407,31.069 2.315,35.107 -3.926,3.037 -7.579,4.561 -10.889,4.561 -0.747,0 -1.48,-0.079 -2.197,-0.235 C -1.665,37.124 -5.229,33.745 -7.988,28.228 -9.214,25.781 -6.191,17.793 -3.765,11.377 -2.139,7.07 -0.601,3.003 0,0"
             style="fill:#ffffff;fill-opacity:1;fill-rule:nonzero;stroke:none"
             id="path212" />
        </g>
        <g
           id="g214"
           transform="translate(150.5225,173.9404)">
          <path
             d="m 0,0 c 2.749,1.265 5.142,2.368 7.065,3.33 6.358,3.174 9.659,6.372 9.292,8.994 -0.463,3.33 -6.743,6.455 -16.796,8.355 -20.035,3.789 -26.011,25.771 -26.255,26.709 -0.708,2.592 -17.305,64.189 -8.389,95.664 8.906,31.435 53.433,60.288 75.732,71.152 19.937,9.712 41.285,-3.335 44.107,-5.151 1.055,-0.103 4.98,-0.244 7.602,2.832 2.486,2.915 4.419,9.585 -0.483,24.795 -7.99,24.753 -53.546,60.923 -73.503,75.852 -14.514,-4.978 -28.421,-11.241 -41.59,-18.676 23.831,-7.693 72.408,-24.649 76.416,-36.273 0.552,-1.602 0.347,-3.159 -0.595,-4.492 -3.169,-7.476 -17.408,-14.82 -35.435,-24.116 -21.807,-11.25 -48.95,-25.245 -63.74,-44.385 -20.565,-26.609 -18.363,-55.835 -16.492,-67.106 h 7.464 c 1.299,0 2.247,-1.064 2.247,-2.247 v -9.707 c 0,-1.184 -0.948,-2.248 -2.247,-2.248 h -3.978 c 3.846,-14.139 11.307,-40.471 16.307,-51.021 3.447,-7.271 6.806,-15.562 3.085,-21.963 -3.271,-5.62 -11.601,-8.862 -25.468,-9.902 -7.613,-0.572 -14.712,-1.104 -21.577,-1.104 -20.108,0 -38.217,4.562 -61.349,26.077 2.086,-17.034 5.882,-33.529 11.217,-49.327 19.399,4.832 87.236,21.396 97.07,19.202 2.559,-0.547 5.181,-0.747 7.29,-0.913 3.677,-0.283 5.899,-0.454 6.318,-2.27 0.459,-1.983 -1.411,-3.775 -13.989,-11.148 -3.569,-2.095 -7.041,-4.014 -10.415,-5.879 -17.851,-9.868 -33.262,-18.388 -45.693,-43.896 -2.251,-10.988 -3.394,-19.243 -3.976,-24.782 5.221,-6.972 10.826,-13.635 16.732,-20.017 2.066,12.274 5.373,22.606 5.418,22.743 C -64.014,-29.502 -20.776,-9.575 0,0"
             style="fill:#ffffff;fill-opacity:1;fill-rule:nonzero;stroke:none"
             id="path216" />
        </g>
        <g
           id="g218"
           transform="translate(98.1006,171.3818)">
          <path
             d="m 0,0 c 3.359,1.855 6.812,3.765 10.361,5.845 2.666,1.562 10.215,5.991 12.242,7.954 -0.85,0.151 -2.227,0.259 -3.399,0.351 -2.187,0.166 -4.917,0.376 -7.651,0.967 -8.015,1.722 -63.27,-11.084 -95.609,-19.129 8.042,-22.964 19.335,-44.386 33.337,-63.736 0.675,5.473 1.816,12.855 3.776,22.323 C -34.023,-18.809 -18.257,-10.093 0,0"
             style="fill:#ffffff;fill-opacity:1;fill-rule:nonzero;stroke:none"
             id="path220" />
        </g>
      </g>
    </g>
  </g>
</svg>
