<?xml version="1.0" encoding="utf-8"?>
<!-- Generator: Adobe Illustrator 24.3.0, SVG Export Plug-In . SVG Version: 6.00 Build 0)  -->
<svg version="1.1" id="Layer_1" xmlns="http://www.w3.org/2000/svg" xmlns:xlink="http://www.w3.org/1999/xlink" x="0px" y="0px"
	 viewBox="0 0 366.13 35.91" style="enable-background:new 0 0 366.13 35.91;" xml:space="preserve">
<style type="text/css">
	.st0{fill:#0D351C;}
	.st1{fill:#1C2B1F;}
	.st2{fill:#348841;}
	.st3{fill:#6FBD4E;}
	.st4{fill:#FFFFFF;}
	.st5{fill:#FFFFFF;}
	.st6{fill:#0D3556;}
	.st7{fill:none;stroke:#C1C6C1;stroke-width:0.5;stroke-miterlimit:10;}
	.st8{fill:#FFFFFF;stroke:#000000;stroke-width:0.25;stroke-miterlimit:10;}
</style>
<g>
	<g>
		<g>
			<path class="st5" d="M70.74,35.09c-3.25,0-6.11-0.68-8.58-2.03c-2.47-1.35-4.4-3.28-5.78-5.78s-2.08-5.46-2.08-8.86
				c0-3.31,0.68-6.21,2.05-8.7c1.37-2.49,3.35-4.42,5.95-5.81c2.6-1.39,5.74-2.08,9.44-2.08c1.69,0,3.26,0.19,4.71,0.57
				c1.45,0.38,2.83,0.94,4.13,1.67l0.19,6.69H80.3L77.62,5.8c-0.42-0.8-0.8-1.37-1.15-1.72s-0.8-0.62-1.34-0.81
				c-0.51-0.16-0.98-0.28-1.41-0.36c-0.43-0.08-1-0.12-1.7-0.12c-1.98,0-3.72,0.53-5.23,1.58c-1.51,1.05-2.68,2.72-3.51,5.02
				c-0.83,2.29-1.24,5.3-1.24,9.03c0,3.7,0.39,6.71,1.17,9.03c0.78,2.33,1.89,4.02,3.32,5.09s3.09,1.6,4.97,1.6
				c0.29,0,0.57-0.02,0.84-0.07c0.27-0.05,0.53-0.1,0.79-0.17c0.6-0.09,1-0.35,1.19-0.76c0.19-0.41,0.29-0.91,0.29-1.48v-9.46
				c0-1.24-0.64-2.01-1.91-2.29l-2.2-0.57v-0.48h13.48v0.48l-0.67,0.19c-1.21,0.38-1.82,1.18-1.82,2.39v10.37
				c-1.66,0.92-3.34,1.62-5.04,2.1C74.75,34.85,72.84,35.09,70.74,35.09z"/>
			<path class="st5" d="M85.65,34.23v-0.48l0.72-0.19c0.64-0.19,1.08-0.48,1.31-0.86c0.24-0.38,0.36-0.88,0.36-1.48V16.27
				c0-0.7-0.12-1.22-0.36-1.55c-0.24-0.33-0.68-0.56-1.31-0.69l-0.72-0.19v-0.48l8.22-2.77l0.48,0.48l0.43,4.11v0.38
				c0.45-0.89,1.03-1.71,1.74-2.46c0.72-0.75,1.51-1.36,2.39-1.84c0.88-0.48,1.74-0.72,2.6-0.72c1.21,0,2.13,0.33,2.77,1
				c0.64,0.67,0.96,1.51,0.96,2.53c0,1.08-0.31,1.92-0.93,2.51c-0.62,0.59-1.36,0.88-2.22,0.88c-1.34,0-2.52-0.67-3.54-2.01
				l-0.1-0.1c-0.32-0.45-0.69-0.69-1.1-0.74c-0.42-0.05-0.8,0.15-1.15,0.6c-0.32,0.29-0.58,0.63-0.79,1.03
				c-0.21,0.4-0.41,0.85-0.6,1.36v13.33c0,1.27,0.56,2.07,1.67,2.39l1.53,0.43v0.48H85.65z"/>
			<path class="st5" d="M117.96,10.53c2.07,0,3.84,0.42,5.3,1.27c1.46,0.84,2.59,1.99,3.37,3.44c0.78,1.45,1.17,3.1,1.17,4.95
				c0,0.35-0.02,0.71-0.05,1.08c-0.03,0.37-0.1,0.69-0.19,0.98h-14.24c0.03,3.44,0.64,5.92,1.84,7.43c1.19,1.51,2.97,2.27,5.33,2.27
				c1.59,0,2.88-0.25,3.87-0.76c0.99-0.51,1.91-1.26,2.77-2.25l0.48,0.43c-0.99,1.75-2.3,3.12-3.94,4.11
				c-1.64,0.99-3.61,1.48-5.9,1.48c-2.26,0-4.27-0.49-6.02-1.46c-1.75-0.97-3.12-2.37-4.11-4.18c-0.99-1.82-1.48-3.98-1.48-6.5
				c0-2.61,0.57-4.83,1.72-6.67c1.15-1.83,2.62-3.23,4.42-4.18C114.09,11.01,115.98,10.53,117.96,10.53z M117.81,11.49
				c-0.92,0-1.71,0.28-2.37,0.84c-0.65,0.56-1.16,1.54-1.53,2.96s-0.57,3.42-0.6,6h8.17c0.32-3.47,0.19-5.97-0.38-7.5
				S119.44,11.49,117.81,11.49z"/>
			<path class="st5" d="M142.18,10.53c2.07,0,3.84,0.42,5.3,1.27c1.46,0.84,2.59,1.99,3.37,3.44c0.78,1.45,1.17,3.1,1.17,4.95
				c0,0.35-0.02,0.71-0.05,1.08c-0.03,0.37-0.1,0.69-0.19,0.98h-14.24c0.03,3.44,0.64,5.92,1.84,7.43c1.19,1.51,2.97,2.27,5.33,2.27
				c1.59,0,2.88-0.25,3.87-0.76c0.99-0.51,1.91-1.26,2.77-2.25l0.48,0.43c-0.99,1.75-2.3,3.12-3.94,4.11
				c-1.64,0.99-3.61,1.48-5.9,1.48c-2.26,0-4.27-0.49-6.02-1.46c-1.75-0.97-3.12-2.37-4.11-4.18c-0.99-1.82-1.48-3.98-1.48-6.5
				c0-2.61,0.57-4.83,1.72-6.67c1.15-1.83,2.62-3.23,4.42-4.18C138.32,11.01,140.21,10.53,142.18,10.53z M142.04,11.49
				c-0.92,0-1.71,0.28-2.37,0.84c-0.65,0.56-1.16,1.54-1.53,2.96s-0.57,3.42-0.6,6h8.17c0.32-3.47,0.19-5.97-0.38-7.5
				S143.66,11.49,142.04,11.49z"/>
			<path class="st5" d="M154.42,34.23v-0.48l0.67-0.19c1.11-0.32,1.67-1.1,1.67-2.34V16.27c0-0.7-0.11-1.22-0.33-1.55
				c-0.22-0.33-0.65-0.56-1.29-0.69l-0.72-0.19v-0.48l8.17-2.77l0.48,0.48l0.38,2.87c1.12-0.99,2.37-1.8,3.78-2.44
				c1.4-0.64,2.79-0.96,4.16-0.96c2.1,0,3.72,0.57,4.85,1.72c1.13,1.15,1.7,2.9,1.7,5.26v13.76c0,1.24,0.6,2.02,1.82,2.34l0.43,0.14
				v0.48H168.9v-0.48l0.62-0.19c1.12-0.35,1.67-1.13,1.67-2.34V15.98c0-2.04-1.02-3.06-3.06-3.06c-1.4,0-2.93,0.7-4.59,2.1v16.25
				c0,1.24,0.56,2.02,1.67,2.34l0.43,0.14v0.48H154.42z"/>
			<path class="st5" d="M182.13,34.23v-0.48l0.96-0.33c0.64-0.19,1.06-0.48,1.27-0.86c0.21-0.38,0.31-0.89,0.31-1.53V5.99
				c0-0.64-0.11-1.15-0.33-1.53c-0.22-0.38-0.65-0.68-1.29-0.91l-0.91-0.38V2.69h11.61c4.75,0,8.18,0.87,10.3,2.6
				c2.12,1.74,3.18,4.02,3.18,6.86c0,1.82-0.44,3.48-1.31,4.99c-0.88,1.51-2.32,2.72-4.33,3.61s-4.72,1.34-8.12,1.34h-1.62v8.79
				c0,1.24,0.62,2.05,1.86,2.44l1.43,0.43v0.48H182.13z M191.83,21.14h1.82c1.56,0,2.83-0.25,3.82-0.76c0.99-0.51,1.72-1.4,2.2-2.68
				c0.48-1.27,0.72-3.04,0.72-5.3c0-2.29-0.26-4.08-0.79-5.35c-0.53-1.27-1.3-2.16-2.32-2.65c-1.02-0.49-2.29-0.74-3.82-0.74h-1.62
				V21.14z"/>
			<path class="st5" d="M220.17,34.95c-2.42,0-4.52-0.5-6.31-1.5c-1.79-1-3.16-2.43-4.13-4.28c-0.97-1.85-1.46-4.01-1.46-6.5
				s0.52-4.64,1.55-6.45c1.04-1.82,2.45-3.22,4.25-4.21s3.83-1.48,6.09-1.48c2.26,0,4.28,0.49,6.07,1.46
				c1.78,0.97,3.19,2.37,4.23,4.18c1.03,1.82,1.55,3.98,1.55,6.5s-0.49,4.69-1.46,6.52c-0.97,1.83-2.34,3.25-4.11,4.25
				C224.69,34.45,222.59,34.95,220.17,34.95z M220.17,33.99c1.12,0,2.01-0.32,2.68-0.96c0.67-0.64,1.16-1.77,1.46-3.39
				c0.3-1.62,0.45-3.92,0.45-6.88c0-2.99-0.15-5.3-0.45-6.93c-0.3-1.62-0.79-2.75-1.46-3.39c-0.67-0.64-1.56-0.96-2.68-0.96
				s-2.02,0.32-2.7,0.96c-0.69,0.64-1.18,1.77-1.48,3.39c-0.3,1.63-0.45,3.94-0.45,6.93c0,2.96,0.15,5.26,0.45,6.88
				c0.3,1.62,0.8,2.76,1.48,3.39C218.16,33.68,219.06,33.99,220.17,33.99z"/>
			<path class="st5" d="M234.13,34.23v-0.48l0.72-0.19c0.64-0.19,1.08-0.48,1.31-0.86c0.24-0.38,0.36-0.88,0.36-1.48V16.27
				c0-0.7-0.12-1.22-0.36-1.55c-0.24-0.33-0.68-0.56-1.31-0.69l-0.72-0.19v-0.48l8.22-2.77l0.48,0.48l0.43,4.11v0.38
				c0.45-0.89,1.03-1.71,1.74-2.46c0.72-0.75,1.51-1.36,2.39-1.84c0.88-0.48,1.74-0.72,2.6-0.72c1.21,0,2.13,0.33,2.77,1
				c0.64,0.67,0.96,1.51,0.96,2.53c0,1.08-0.31,1.92-0.93,2.51c-0.62,0.59-1.36,0.88-2.22,0.88c-1.34,0-2.52-0.67-3.54-2.01
				l-0.1-0.1c-0.32-0.45-0.69-0.69-1.1-0.74c-0.42-0.05-0.8,0.15-1.15,0.6c-0.32,0.29-0.58,0.63-0.79,1.03
				c-0.21,0.4-0.41,0.85-0.6,1.36v13.33c0,1.27,0.56,2.07,1.67,2.39l1.53,0.43v0.48H234.13z"/>
			<path class="st5" d="M264.71,34.95c-2.04,0-3.62-0.51-4.75-1.53s-1.7-2.64-1.7-4.87V12.2h-3.3v-0.48l1.15-0.19
				c0.99-0.22,1.84-0.54,2.56-0.96s1.43-0.97,2.13-1.67l3.92-4.35h0.48l-0.14,6.69h5.35v0.96H265v17.2c0,1.12,0.25,1.96,0.74,2.53
				s1.12,0.86,1.89,0.86c0.67,0,1.26-0.17,1.77-0.5c0.51-0.33,1.02-0.79,1.53-1.36l0.48,0.48c-0.64,1.08-1.51,1.94-2.63,2.58
				C267.65,34.63,266.3,34.95,264.71,34.95z"/>
			<path class="st5" d="M272.98,34.23v-0.48l0.62-0.14c0.6-0.16,1.08-0.44,1.43-0.84c0.35-0.4,0.53-0.92,0.53-1.55
				c0-1.18,0.01-2.35,0.02-3.51c0.02-1.16,0.02-2.33,0.02-3.51v-12h-2.68v-0.53l1.05-0.19c0.64-0.06,1.1-0.29,1.39-0.67
				c0.29-0.38,0.49-0.91,0.62-1.58c0.32-1.24,0.79-2.33,1.41-3.27c0.62-0.94,1.33-1.81,2.13-2.6c1.21-1.15,2.49-1.95,3.85-2.41
				c1.35-0.46,2.68-0.69,3.99-0.69c1.27,0,2.44,0.26,3.49,0.79c1.05,0.53,1.58,1.39,1.58,2.6c0,0.86-0.26,1.54-0.76,2.03
				c-0.51,0.49-1.23,0.74-2.15,0.74c-0.76,0-1.47-0.21-2.1-0.62c-0.64-0.41-1.26-1.15-1.86-2.2l-0.67-0.81
				c-0.35-0.45-0.7-0.66-1.05-0.64c-0.35,0.02-0.61,0.28-0.76,0.79c-0.22,1.12-0.39,2.42-0.5,3.92c-0.11,1.5-0.17,2.96-0.17,4.4
				h5.35v0.96h-5.35v18.92c0,1.21,0.64,1.99,1.91,2.34l1.19,0.29v0.48H272.98z"/>
			<path class="st5" d="M300.79,34.95c-2.42,0-4.52-0.5-6.31-1.5c-1.79-1-3.16-2.43-4.13-4.28c-0.97-1.85-1.46-4.01-1.46-6.5
				s0.52-4.64,1.55-6.45c1.04-1.82,2.45-3.22,4.25-4.21s3.83-1.48,6.09-1.48c2.26,0,4.28,0.49,6.07,1.46
				c1.78,0.97,3.19,2.37,4.23,4.18c1.03,1.82,1.55,3.98,1.55,6.5s-0.49,4.69-1.46,6.52c-0.97,1.83-2.34,3.25-4.11,4.25
				C305.3,34.45,303.21,34.95,300.79,34.95z M300.79,33.99c1.12,0,2.01-0.32,2.68-0.96c0.67-0.64,1.16-1.77,1.46-3.39
				c0.3-1.62,0.45-3.92,0.45-6.88c0-2.99-0.15-5.3-0.45-6.93c-0.3-1.62-0.79-2.75-1.46-3.39c-0.67-0.64-1.56-0.96-2.68-0.96
				s-2.02,0.32-2.7,0.96c-0.69,0.64-1.18,1.77-1.48,3.39c-0.3,1.63-0.45,3.94-0.45,6.93c0,2.96,0.15,5.26,0.45,6.88
				c0.3,1.62,0.8,2.76,1.48,3.39C298.77,33.68,299.67,33.99,300.79,33.99z"/>
			<path class="st5" d="M314.69,34.23v-0.48l0.57-0.19c1.15-0.38,1.72-1.18,1.72-2.39V5.61c0-0.64-0.13-1.12-0.38-1.46
				c-0.26-0.33-0.7-0.58-1.34-0.74l-0.62-0.14V2.79l8.75-2.05l0.57,0.43l-0.19,6.69V24.2c0,1.18,0.01,2.35,0.02,3.51
				c0.02,1.16,0.02,2.32,0.02,3.46c0,0.64,0.13,1.16,0.38,1.55s0.69,0.69,1.29,0.88l0.62,0.14v0.48H314.69z"/>
			<path class="st5" d="M328.31,34.23v-0.48l0.67-0.19c0.64-0.19,1.08-0.48,1.31-0.86c0.24-0.38,0.36-0.89,0.36-1.53V16.22
				c0-0.67-0.12-1.17-0.36-1.51c-0.24-0.33-0.68-0.56-1.31-0.69l-0.67-0.14V13.4l8.75-2.82l0.48,0.48l-0.14,6.79v13.38
				c0,0.64,0.12,1.15,0.36,1.53c0.24,0.38,0.66,0.67,1.27,0.86l0.48,0.14v0.48H328.31z M333.95,8.05c-1.08,0-2-0.34-2.75-1.03
				c-0.75-0.68-1.12-1.55-1.12-2.6c0-1.08,0.37-1.96,1.12-2.63c0.75-0.67,1.66-1,2.75-1c1.08,0,1.99,0.33,2.72,1
				c0.73,0.67,1.1,1.54,1.1,2.63c0,1.05-0.37,1.92-1.1,2.6C335.94,7.7,335.04,8.05,333.95,8.05z"/>
			<path class="st5" d="M353.69,34.95c-2.42,0-4.52-0.5-6.31-1.5c-1.79-1-3.16-2.43-4.13-4.28c-0.97-1.85-1.46-4.01-1.46-6.5
				s0.52-4.64,1.55-6.45c1.04-1.82,2.45-3.22,4.25-4.21s3.83-1.48,6.09-1.48c2.26,0,4.28,0.49,6.07,1.46
				c1.78,0.97,3.19,2.37,4.23,4.18c1.03,1.82,1.55,3.98,1.55,6.5s-0.49,4.69-1.46,6.52c-0.97,1.83-2.34,3.25-4.11,4.25
				C358.2,34.45,356.11,34.95,353.69,34.95z M353.69,33.99c1.12,0,2.01-0.32,2.68-0.96c0.67-0.64,1.16-1.77,1.46-3.39
				c0.3-1.62,0.45-3.92,0.45-6.88c0-2.99-0.15-5.3-0.45-6.93c-0.3-1.62-0.79-2.75-1.46-3.39c-0.67-0.64-1.56-0.96-2.68-0.96
				s-2.02,0.32-2.7,0.96c-0.69,0.64-1.18,1.77-1.48,3.39c-0.3,1.63-0.45,3.94-0.45,6.93c0,2.96,0.15,5.26,0.45,6.88
				c0.3,1.62,0.8,2.76,1.48,3.39C351.67,33.68,352.57,33.99,353.69,33.99z"/>
		</g>
	</g>
	<g>
		<path class="st2" d="M1.45,26.06c0.01,4.06,3.19,7.52,4.44,8.73c0.28,0.27,0.71,0.27,0.99,0c1.24-1.19,4.39-4.6,4.37-8.66
			c-0.01-4.06-3.19-7.52-4.44-8.73c-0.28-0.27-0.71-0.27-0.99,0C4.59,18.6,1.44,22.01,1.45,26.06z"/>
	</g>
	<g>
		<path class="st2" d="M15.34,22.52c0.02,5.78,4.2,10.69,5.67,12.24c0.28,0.29,0.73,0.29,1.01,0c1.46-1.53,5.6-6.37,5.59-12.14
			c-0.02-5.78-4.2-10.69-5.67-12.24c-0.28-0.29-0.73-0.29-1.01,0C19.47,11.91,15.33,16.75,15.34,22.52z"/>
	</g>
	<g>
		<path class="st2" d="M31.96,19.39c0.02,7,4.2,12.98,5.87,15.09c0.37,0.47,0.98,0.47,1.36,0c1.67-2.09,5.8-7.98,5.79-14.97
			c-0.02-7-4.2-12.98-5.87-15.09c-0.37-0.47-0.98-0.47-1.36,0C36.08,6.51,31.94,12.4,31.96,19.39z"/>
	</g>
	<g>
		<path class="st3" d="M31.96,19.39c0.02,7,4.2,12.98,5.87,15.09c0.17,0.21,0.39,0.33,0.61,0.35c0.06,0.05,0-30.75,0.03-30.76
			c-0.26-0.01-0.52,0.1-0.72,0.35C36.08,6.51,31.94,12.4,31.96,19.39z"/>
	</g>
	<g>
		<path class="st3" d="M15.34,22.52c0.02,5.78,4.2,10.69,5.67,12.24c0.12,0.13,0.28,0.2,0.44,0.22c0.02-0.05,0.02-24.79-0.01-24.81
			c-0.18,0-0.36,0.07-0.5,0.22C19.47,11.91,15.33,16.75,15.34,22.52z"/>
	</g>
	<g>
		<path class="st3" d="M1.45,26.06c0.01,4.06,3.19,7.52,4.44,8.73c0.14,0.13,0.31,0.2,0.48,0.2c0.02-0.01,0.02-17.8-0.02-17.78
			c-0.19-0.01-0.38,0.06-0.53,0.2C4.59,18.6,1.44,22.01,1.45,26.06z"/>
	</g>
</g>
</svg>
